# xmcd
#
# Track frame offsets: 
#        150
#        12645
#        27535
#        42950
#        54382
#        76790
#        94230
#        108510
#        123872
#        142550
#        156005
#        169855
#        182017
#        199990
#        221290
#        239455
#        254647
#        271430
#
# Disc length: 3842 seconds
#
# Revision: 0
# Processed by: cddbd v1.5.2PL0 Copyright (c) Steve Scherf et al.
# Submitted via: ExactAudioCopy v0.99pb3
#
DISCID=f70f0012
DTITLE=Various Artist - Nashville Line Dancing Album Vol 2
DYEAR=1900
DGENRE=
TTITLE0=Daryle Singletary - Too Much Fun
TTITLE1=Carlene Carter - Heart is Right
TTITLE2=Martina McBride - Independence Day
TTITLE3=Kentucky Headhunters - Party Zone
TTITLE4=Clay Walker - Bury The Shovel
TTITLE5=Keith Gattis - Little Drops of my Heart
TTITLE6=Alabama - Say I
TTITLE7=Lorrie Morgan - Steppin Stones
TTITLE8=Lonestar - No News
TTITLE9=Regina Regina - Right Plan Wrong Man
TTITLE10=Jill Morris - Limbo
TTITLE11=Ty England - I Should've Asked Her Faster
TTITLE12=John Anderson - Seminole Wind
TTITLE13=Daron Norwood - Bad Dog No Biscuit
TTITLE14=K T Oslin - Silver Tongue and Goldplated Lies
TTITLE15=Aaron Tippin - I Can Help 
TTITLE16=Lorrie Morgan - Back in your Arms Again
TTITLE17=K T Oslin - (I'll See You In) Cuba
EXTD=
EXTT0=
EXTT1=
EXTT2=
EXTT3=
EXTT4=
EXTT5=
EXTT6=
EXTT7=
EXTT8=
EXTT9=
EXTT10=
EXTT11=
EXTT12=
EXTT13=
EXTT14=
EXTT15=
EXTT16=
EXTT17=
PLAYORDER=
